<svg xmlns="http://www.w3.org/2000/svg" viewBox="0 0 1200 400" width="1200" height="400">
  <defs>
    <linearGradient id="bg" x1="0%" y1="0%" x2="100%" y2="100%">
      <stop offset="0%" stop-color="#0B0F14"/>
      <stop offset="100%" stop-color="#141D2B"/>
    </linearGradient>
    <linearGradient id="accent" x1="0%" y1="0%" x2="100%" y2="0%">
      <stop offset="0%" stop-color="#6366F1" stop-opacity="0"/>
      <stop offset="20%" stop-color="#6366F1" stop-opacity="0.6"/>
      <stop offset="80%" stop-color="#3B82F6" stop-opacity="0.6"/>
      <stop offset="100%" stop-color="#3B82F6" stop-opacity="0"/>
    </linearGradient>
    <pattern id="dots" x="0" y="0" width="24" height="24" patternUnits="userSpaceOnUse">
      <circle cx="12" cy="12" r="1" fill="#1E293B" opacity="0.5"/>
    </pattern>
  </defs>

  <!-- Background -->
  <rect width="1200" height="400" fill="url(#bg)"/>
  <rect width="1200" height="400" fill="url(#dots)"/>

  <!-- Accent line -->
  <rect x="120" y="295" width="500" height="2" rx="1" fill="url(#accent)"/>

  <!-- Clipboard icon -->
  <g transform="translate(130, 110)" fill="none" stroke="#6366F1" stroke-width="2.5" stroke-linecap="round" stroke-linejoin="round">
    <!-- Clipboard body -->
    <rect x="8" y="12" width="64" height="80" rx="6" opacity="0.9"/>
    <!-- Clipboard tab -->
    <path d="M24 12 V6 A4 4 0 0 1 28 2 H52 A4 4 0 0 1 56 6 V12" opacity="0.9"/>
    <!-- Text lines -->
    <line x1="22" y1="38" x2="58" y2="38" stroke="#3B82F6" opacity="0.5"/>
    <line x1="22" y1="52" x2="50" y2="52" stroke="#3B82F6" opacity="0.5"/>
    <line x1="22" y1="66" x2="54" y2="66" stroke="#3B82F6" opacity="0.5"/>
    <!-- Capture flash -->
    <path d="M44 72 L52 58 H46 L54 44" stroke="#818CF8" stroke-width="2" opacity="0.7"/>
  </g>

  <!-- Title -->
  <text x="260" y="195" font-family="Consolas, 'Courier New', monospace" font-size="80" font-weight="bold" fill="#E6EDF5" letter-spacing="-2">notd</text>

  <!-- Pronunciation -->
  <text x="498" y="195" font-family="Segoe UI, Helvetica, Arial, sans-serif" font-size="24" fill="#4A5568" font-style="italic" letter-spacing="1">no&#xB7;ted</text>

  <!-- Subtitle -->
  <text x="265" y="235" font-family="Segoe UI, Helvetica, Arial, sans-serif" font-size="20" fill="#9FB0C3" letter-spacing="1">intentional clipboard capture</text>

  <!-- Version pill -->
  <rect x="265" y="255" width="56" height="22" rx="11" fill="#1E293B" stroke="#334155" stroke-width="1"/>
  <text x="293" y="270" font-family="Consolas, monospace" font-size="11" fill="#6366F1" text-anchor="middle">v1.0.0</text>

  <!-- Feature pills -->
  <rect x="330" y="255" width="82" height="22" rx="11" fill="#1E293B" stroke="#334155" stroke-width="1"/>
  <text x="371" y="270" font-family="Segoe UI, sans-serif" font-size="11" fill="#3B82F6" text-anchor="middle">zero deps</text>

  <rect x="420" y="255" width="76" height="22" rx="11" fill="#1E293B" stroke="#334155" stroke-width="1"/>
  <text x="458" y="270" font-family="Segoe UI, sans-serif" font-size="11" fill="#22C55E" text-anchor="middle">Windows</text>

  <!-- Decorative side elements -->
  <g opacity="0.08">
    <rect x="900" y="60" width="200" height="12" rx="2" fill="#6366F1"/>
    <rect x="940" y="84" width="160" height="12" rx="2" fill="#3B82F6"/>
    <rect x="920" y="108" width="180" height="12" rx="2" fill="#6366F1"/>
    <rect x="960" y="132" width="140" height="12" rx="2" fill="#3B82F6"/>
    <rect x="910" y="156" width="190" height="12" rx="2" fill="#6366F1"/>
    <rect x="950" y="180" width="150" height="12" rx="2" fill="#3B82F6"/>
    <rect x="930" y="204" width="170" height="12" rx="2" fill="#6366F1"/>
    <rect x="900" y="228" width="200" height="12" rx="2" fill="#3B82F6"/>
    <rect x="945" y="252" width="155" height="12" rx="2" fill="#6366F1"/>
    <rect x="915" y="276" width="185" height="12" rx="2" fill="#3B82F6"/>
  </g>

  <!-- Brand -->
  <text x="1080" y="380" font-family="Segoe UI, sans-serif" font-size="14" fill="#4A5568" text-anchor="middle">Deze Tingz</text>

  <!-- Subtle border -->
  <rect x="0" y="0" width="1200" height="400" rx="0" fill="none" stroke="#1E293B" stroke-width="1"/>
</svg>
